# xmcd
#
# Track frame offsets: 
#        150
#        14231
#        29946
#        44375
#        60609
#        76175
#        91384
#        104396
#        118901
#        131169
#        144764
#        157917
#
# Disc length: 2150 seconds
#
# Revision: 0
# Processed by: cddbd v1.5.2PL0 Copyright (c) Steve Scherf et al.
# Submitted via: ExactAudioCopyFreeDBPlugin 1.0
#
DISCID=a508640c
DTITLE=Young Medecine - Meant 2 Be
DYEAR=2016
DGENRE=Country
TTITLE0=Take My Hand
TTITLE1=We Miss You, U live
TTITLE2=Youth is Now
TTITLE3=Shine Your Light
TTITLE4=We Dance
TTITLE5=For What It's Worth
TTITLE6=Johnny 2 Times
TTITLE7=Forever
TTITLE8=Intro
TTITLE9=Fear
TTITLE10=Never Say Goodbye
TTITLE11=Outtro
EXTD=
EXTT0=
EXTT1=
EXTT2=
EXTT3=
EXTT4=
EXTT5=
EXTT6=
EXTT7=
EXTT8=
EXTT9=
EXTT10=
EXTT11=
PLAYORDER=
